<svg width="28" height="28" viewBox="0 0 28 28" fill="none" xmlns="http://www.w3.org/2000/svg">
<path d="M10.8945 18.6555C14.577 18.451 17.5 15.4003 17.5 11.6667C17.5 7.80069 14.366 4.66669 10.5 4.66669C6.63401 4.66669 3.5 7.80069 3.5 11.6667C3.5 13.0442 3.89776 14.3287 4.58487 15.4116L4.09017 16.8957L4.08938 16.8979C3.89991 17.4664 3.80513 17.7507 3.87261 17.94C3.93142 18.1049 4.06197 18.2349 4.22689 18.2937C4.41551 18.361 4.69787 18.2668 5.26247 18.0786L5.27051 18.0762L6.75505 17.5815C7.83802 18.2686 9.12258 18.6665 10.5001 18.6665C10.6324 18.6665 10.7639 18.6628 10.8945 18.6555ZM10.8945 18.6555C10.8946 18.6558 10.8944 18.6553 10.8945 18.6555ZM10.8945 18.6555C11.8522 21.3802 14.4481 23.3335 17.5002 23.3335C18.8777 23.3335 20.1619 22.9353 21.2448 22.2481L22.729 22.7429L22.7319 22.7434C23.3003 22.9329 23.5851 23.0278 23.7744 22.9603C23.9393 22.9015 24.0682 22.7715 24.127 22.6066C24.1946 22.4171 24.1001 22.1324 23.9101 21.5624L23.4154 20.0783L23.5811 19.8037C24.1661 18.7809 24.4994 17.596 24.4994 16.3334C24.4994 12.4674 21.366 9.33335 17.5 9.33335L17.238 9.33818L17.1058 9.34464" stroke="#959595" stroke-width="2" stroke-linecap="round" stroke-linejoin="round"/>
</svg>
