<svg width="28" height="28" viewBox="0 0 28 28" fill="none" xmlns="http://www.w3.org/2000/svg">
<path d="M2.3335 23.3334H4.66683M4.66683 23.3334H11.6668M4.66683 23.3334V13.3609C4.66683 12.7375 4.66683 12.4257 4.74263 12.1356C4.8098 11.8785 4.92092 11.6352 5.07015 11.4154C5.23854 11.1673 5.47258 10.9616 5.94173 10.5511L11.5436 5.64951C12.4133 4.8885 12.8482 4.50796 13.338 4.36313C13.7699 4.2354 14.2302 4.2354 14.6621 4.36313C15.1523 4.50807 15.5878 4.88896 16.4588 5.65113L22.0588 10.5511C22.528 10.9616 22.7621 11.1674 22.9305 11.4154C23.0797 11.6352 23.19 11.8785 23.2572 12.1356C23.333 12.4257 23.3335 12.7375 23.3335 13.3609V23.3334M11.6668 23.3334H16.3335M11.6668 23.3334V18.6668C11.6668 17.3781 12.7115 16.3334 14.0002 16.3334C15.2888 16.3334 16.3335 17.3781 16.3335 18.6668V23.3334M16.3335 23.3334H23.3335M23.3335 23.3334H25.6668" stroke="#14C0E4" stroke-width="2" stroke-linecap="round" stroke-linejoin="round"/>
</svg>
