<svg width="28" height="28" viewBox="0 0 28 28" fill="none" xmlns="http://www.w3.org/2000/svg">
<path d="M5.83333 24.5C5.19167 24.5 4.64256 24.2717 4.186 23.8152C3.72944 23.3586 3.50078 22.8091 3.5 22.1667V5.83333C3.5 5.19167 3.72867 4.64256 4.186 4.186C4.64333 3.72944 5.19244 3.50078 5.83333 3.5H22.1667C22.8083 3.5 23.3578 3.72867 23.8152 4.186C24.2725 4.64333 24.5008 5.19244 24.5 5.83333V22.1667C24.5 22.8083 24.2717 23.3578 23.8152 23.8152C23.3586 24.2725 22.8091 24.5008 22.1667 24.5H5.83333ZM5.83333 22.1667H22.1667V5.83333H5.83333V22.1667ZM9.33333 19.8333H15.1667C15.4972 19.8333 15.7745 19.7213 15.9985 19.4973C16.2225 19.2733 16.3341 18.9964 16.3333 18.6667C16.3333 18.3361 16.2213 18.0592 15.9973 17.836C15.7733 17.6128 15.4964 17.5008 15.1667 17.5H9.33333C9.00278 17.5 8.72589 17.612 8.50267 17.836C8.27944 18.06 8.16744 18.3369 8.16667 18.6667C8.16667 18.9972 8.27867 19.2745 8.50267 19.4985C8.72667 19.7225 9.00356 19.8341 9.33333 19.8333ZM9.33333 15.1667H18.6667C18.9972 15.1667 19.2745 15.0547 19.4985 14.8307C19.7225 14.6067 19.8341 14.3298 19.8333 14C19.8333 13.6694 19.7213 13.3926 19.4973 13.1693C19.2733 12.9461 18.9964 12.8341 18.6667 12.8333H9.33333C9.00278 12.8333 8.72589 12.9453 8.50267 13.1693C8.27944 13.3933 8.16744 13.6702 8.16667 14C8.16667 14.3306 8.27867 14.6078 8.50267 14.8318C8.72667 15.0558 9.00356 15.1674 9.33333 15.1667ZM9.33333 10.5H18.6667C18.9972 10.5 19.2745 10.388 19.4985 10.164C19.7225 9.94 19.8341 9.66311 19.8333 9.33333C19.8333 9.00278 19.7213 8.72589 19.4973 8.50267C19.2733 8.27944 18.9964 8.16744 18.6667 8.16667H9.33333C9.00278 8.16667 8.72589 8.27867 8.50267 8.50267C8.27944 8.72667 8.16744 9.00356 8.16667 9.33333C8.16667 9.66389 8.27867 9.94117 8.50267 10.1652C8.72667 10.3892 9.00356 10.5008 9.33333 10.5Z" fill="#14C0E4"/>
</svg>
