<svg width="20" height="20" viewBox="0 0 20 20" fill="none" xmlns="http://www.w3.org/2000/svg">
<path d="M4.1665 14.4447V5.55582C4.1665 4.82285 4.1665 4.45596 4.32075 4.23909C4.45537 4.04981 4.66287 3.92554 4.89323 3.89582C5.15707 3.86179 5.48068 4.03438 6.12695 4.37906L14.4603 8.82351L14.4633 8.82485C15.1775 9.20576 15.5348 9.39631 15.652 9.65027C15.7542 9.87182 15.7542 10.1276 15.652 10.3491C15.5346 10.6034 15.1765 10.7948 14.4603 11.1768L6.12695 15.6212C5.48021 15.9661 5.15717 16.138 4.89323 16.104C4.66287 16.0743 4.45537 15.95 4.32075 15.7608C4.1665 15.5439 4.1665 15.1777 4.1665 14.4447Z" stroke="white" stroke-width="2" stroke-linecap="round" stroke-linejoin="round"/>
</svg>
